<?xml version="1.0" encoding="utf-8"?>
<!-- Generator: Adobe Illustrator 28.1.0, SVG Export Plug-In . SVG Version: 6.00 Build 0)  -->
<svg version="1.1" id="Layer_2_00000165924961582695550700000006752769901701302958_"
	 xmlns="http://www.w3.org/2000/svg" xmlns:xlink="http://www.w3.org/1999/xlink" x="0px" y="0px" viewBox="0 0 150.4 29"
	 style="enable-background:new 0 0 150.4 29;" xml:space="preserve">
<style type="text/css">
	.st0{fill:#FFFFFF;}
</style>
<g id="Layer_2-2">
	<g>
		<path class="st0" d="M83.7,11.3c0,1.2-0.2,2.3-0.5,3.4c-1.4,4.6-5.7,7.9-10.8,7.9H49L40.4,29l10.4-14.4h21.4
			c1.8,0,3.5-1.4,3.6-3.2c0.1-1.9-1.4-3.6-3.4-3.6H51.7L36.4,29h-5.6l-5.7-17.1L12.7,29H9.6L0,0h8.4l4.9,14.7l0,0.1l0.1-0.1L24,0
			h5.5l5.7,17.2L47.7,0h24.7c0.8,0,1.6,0.1,2.4,0.2c4,0.9,7.2,3.8,8.4,7.7C83.5,9,83.7,10.1,83.7,11.3L83.7,11.3z"/>
		<path class="st0" d="M108.3,3.3l-4.5,10.3h-3l-0.5-6.8l-2.9,6.8h-3L93.6,3.3h2.7l0.2,7.5l3.2-7.5h2.8l0.4,7.5l2.8-7.5L108.3,3.3
			L108.3,3.3z"/>
		<path class="st0" d="M108.8,7.3c0.4-0.6,0.9-1.1,1.6-1.5s1.2-0.5,1.9-0.5c0.6,0,1.1,0.1,1.4,0.3s0.7,0.5,0.8,0.9l0.2-1.2h2.5
			l-1.4,8.2h-2.5l0.2-1.2c-0.3,0.4-0.7,0.7-1.2,0.9c-0.5,0.2-1,0.4-1.6,0.4s-1.1-0.1-1.5-0.4c-0.4-0.3-0.8-0.6-1-1.1
			s-0.4-1.1-0.4-1.7c0-0.3,0-0.6,0.1-1C108.1,8.6,108.4,7.9,108.8,7.3L108.8,7.3z M114.2,9c0-0.5-0.1-0.9-0.4-1.1s-0.6-0.4-1.1-0.4
			c-0.5,0-0.9,0.2-1.4,0.5c-0.4,0.4-0.7,0.9-0.8,1.5c0,0.2,0,0.3,0,0.5c0,0.5,0.1,0.9,0.4,1.1c0.3,0.3,0.6,0.4,1.1,0.4
			c0.5,0,0.9-0.2,1.4-0.5c0.4-0.4,0.7-0.9,0.8-1.5C114.2,9.4,114.2,9.2,114.2,9L114.2,9z"/>
		<path class="st0" d="M122.1,2.8l-1.9,10.9h-2.5l1.9-10.9H122.1z"/>
		<path class="st0" d="M126,5.4l-1.4,8.2H122l1.4-8.2H126z M124,4.3c-0.2-0.2-0.3-0.5-0.3-0.8c0-0.4,0.2-0.8,0.5-1.1
			c0.3-0.3,0.8-0.5,1.2-0.5c0.4,0,0.7,0.1,0.9,0.3c0.2,0.2,0.3,0.5,0.3,0.8c0,0.4-0.2,0.8-0.5,1.1s-0.8,0.5-1.2,0.5
			C124.5,4.6,124.2,4.5,124,4.3L124,4.3z"/>
		<path class="st0" d="M127.5,7.3c0.4-0.6,0.9-1.1,1.6-1.5s1.2-0.5,1.9-0.5c0.5,0,1,0.1,1.4,0.3s0.7,0.5,0.9,0.9l0.7-3.8h2.5
			l-1.9,10.9H132l0.2-1.2c-0.3,0.4-0.7,0.7-1.2,0.9s-1,0.4-1.6,0.4s-1.1-0.1-1.5-0.4c-0.4-0.3-0.8-0.6-1-1.1s-0.4-1.1-0.4-1.7
			c0-0.3,0-0.6,0.1-1C126.8,8.7,127.1,7.9,127.5,7.3L127.5,7.3z M132.8,9c0-0.5-0.1-0.9-0.4-1.1s-0.6-0.4-1.1-0.4
			c-0.5,0-0.9,0.2-1.4,0.5c-0.4,0.4-0.7,0.9-0.8,1.5c0,0.2,0,0.3,0,0.5c0,0.5,0.1,0.9,0.4,1.1c0.3,0.3,0.6,0.4,1.1,0.4
			c0.5,0,0.9-0.2,1.4-0.5c0.4-0.4,0.7-0.9,0.8-1.5C132.8,9.4,132.8,9.2,132.8,9L132.8,9z"/>
		<path class="st0" d="M100.7,21.7c-0.4,0.5-0.8,0.9-1.5,1.2s-1.3,0.5-2.2,0.5h-1.6l-0.7,3.7h-2.5l1.8-10.3h4.1
			c1.1,0,1.9,0.2,2.4,0.7s0.8,1.1,0.8,1.9c0,0.2,0,0.5-0.1,0.7C101.3,20.7,101.1,21.2,100.7,21.7L100.7,21.7z M98.8,20.1
			c0-0.2,0-0.3,0-0.3c0-0.3-0.1-0.5-0.3-0.7c-0.2-0.2-0.5-0.3-0.9-0.3h-1.4l-0.5,2.6h1.3C98.1,21.4,98.6,20.9,98.8,20.1L98.8,20.1z"
			/>
		<path class="st0" d="M102.6,20.7c0.4-0.6,0.9-1.1,1.6-1.5s1.2-0.5,1.9-0.5c0.6,0,1.1,0.1,1.4,0.4s0.7,0.5,0.8,0.9l0.2-1.2h2.5
			l-1.4,8.2h-2.5l0.2-1.2c-0.3,0.4-0.7,0.7-1.2,0.9c-0.5,0.2-1,0.4-1.6,0.4s-1.1-0.1-1.5-0.4c-0.4-0.3-0.8-0.6-1-1.1s-0.4-1-0.4-1.7
			c0-0.3,0-0.6,0.1-1C101.8,22.1,102.1,21.4,102.6,20.7L102.6,20.7z M107.9,22.5c0-0.5-0.1-0.9-0.4-1.1s-0.6-0.4-1.1-0.4
			c-0.5,0-0.9,0.2-1.4,0.5c-0.4,0.4-0.7,0.9-0.8,1.5c0,0.2,0,0.3,0,0.5c0,0.5,0.1,0.9,0.4,1.1c0.3,0.3,0.6,0.4,1.1,0.4
			c0.5,0,0.9-0.2,1.4-0.5c0.4-0.4,0.7-0.9,0.8-1.5C107.9,22.8,107.9,22.6,107.9,22.5L107.9,22.5z"/>
		<path class="st0" d="M119.8,19.5c0.5,0.5,0.7,1.1,0.7,1.9c0,0.3,0,0.6-0.1,0.9l-0.8,4.8h-2.5l0.8-4.5c0-0.2,0-0.3,0-0.4
			c0-0.4-0.1-0.7-0.3-1c-0.2-0.2-0.6-0.3-1-0.3c-0.5,0-0.9,0.1-1.2,0.5c-0.3,0.3-0.6,0.7-0.7,1.3v-0.1l-0.8,4.5h-2.5l1.4-8.2h2.5
			l-0.2,1.1c0.3-0.4,0.7-0.6,1.2-0.9c0.5-0.2,1-0.3,1.5-0.3C118.7,18.8,119.3,19,119.8,19.5L119.8,19.5z"/>
		<path class="st0" d="M123,26.9c-0.5-0.2-0.9-0.5-1.2-0.9s-0.4-0.8-0.4-1.3c0-0.1,0-0.2,0-0.4h2.4c0,0.3,0.1,0.5,0.3,0.7
			s0.5,0.3,0.9,0.3c0.3,0,0.6-0.1,0.8-0.2s0.3-0.3,0.3-0.5s-0.1-0.4-0.3-0.5c-0.2-0.1-0.6-0.3-1.1-0.5c-0.5-0.2-1-0.4-1.3-0.5
			s-0.7-0.4-0.9-0.7c-0.2-0.3-0.4-0.7-0.4-1.2s0.1-0.9,0.4-1.3c0.3-0.4,0.7-0.7,1.2-0.9s1.1-0.3,1.8-0.3s1.3,0.1,1.8,0.3
			s0.9,0.5,1.2,0.9s0.4,0.8,0.4,1.3v0.2h-2.3c0-0.3-0.1-0.5-0.3-0.7s-0.5-0.3-0.8-0.3c-0.3,0-0.5,0.1-0.7,0.2s-0.3,0.3-0.3,0.5
			c0,0.2,0.1,0.4,0.4,0.5c0.2,0.1,0.6,0.3,1.1,0.5c0.5,0.2,1,0.4,1.3,0.5c0.3,0.2,0.7,0.4,0.9,0.7c0.2,0.3,0.4,0.7,0.4,1.1
			c0,0.5-0.2,1-0.5,1.4c-0.3,0.4-0.8,0.7-1.3,0.9s-1.2,0.3-1.9,0.3C124.1,27.2,123.5,27.1,123,26.9L123,26.9z"/>
		<path class="st0" d="M130.6,20.7c0.4-0.6,0.9-1.1,1.6-1.5s1.2-0.5,1.9-0.5c0.6,0,1.1,0.1,1.4,0.4s0.7,0.5,0.9,0.9l0.2-1.2h2.5
			l-1.4,8.2h-2.5l0.2-1.2c-0.3,0.4-0.7,0.7-1.2,0.9c-0.5,0.2-1,0.4-1.6,0.4s-1.1-0.1-1.5-0.4c-0.4-0.3-0.8-0.6-1-1.1s-0.4-1-0.4-1.7
			c0-0.3,0-0.6,0.1-1C129.9,22.1,130.2,21.4,130.6,20.7L130.6,20.7z M135.9,22.5c0-0.5-0.1-0.9-0.4-1.1s-0.6-0.4-1.1-0.4
			c-0.5,0-0.9,0.2-1.4,0.5c-0.4,0.4-0.7,0.9-0.8,1.5c0,0.2,0,0.3,0,0.5c0,0.5,0.1,0.9,0.4,1.1c0.3,0.3,0.6,0.4,1.1,0.4
			c0.5,0,0.9-0.2,1.4-0.5c0.4-0.4,0.7-0.9,0.8-1.5C135.9,22.8,135.9,22.6,135.9,22.5L135.9,22.5z"/>
		<path class="st0" d="M144.5,19.2c0.5-0.3,1-0.4,1.6-0.4l-0.5,2.7h-0.7c-0.6,0-1.1,0.1-1.5,0.4s-0.6,0.7-0.7,1.4l-0.7,3.8h-2.5
			l1.4-8.2h2.5l-0.3,1.5C143.6,19.9,144,19.5,144.5,19.2L144.5,19.2z"/>
		<path class="st0" d="M149.7,18.9l-1.4,8.2h-2.5l1.4-8.2C147.2,18.9,149.7,18.9,149.7,18.9z M147.7,17.7c-0.2-0.2-0.3-0.5-0.3-0.8
			c0-0.4,0.2-0.8,0.5-1.1s0.8-0.5,1.2-0.5c0.4,0,0.7,0.1,0.9,0.3c0.2,0.2,0.3,0.5,0.3,0.8c0,0.4-0.2,0.8-0.5,1.1s-0.8,0.5-1.2,0.5
			C148.2,18,147.9,17.9,147.7,17.7L147.7,17.7z"/>
		<path class="st0" d="M82.1,0v0.2h-0.4v1.2h-0.2V0.2h-0.4V0H82.1L82.1,0z"/>
		<path class="st0" d="M83.7,0v1.4h-0.2v-1l-0.5,1H83l-0.5-1v1h-0.2V0h0.2L83,1.1L83.5,0H83.7L83.7,0z"/>
	</g>
</g>
</svg>
